<svg id="Layer_1" data-name="Layer 1" xmlns="http://www.w3.org/2000/svg" viewBox="0 0 2770.97 2880.28"><defs><style>.cls-1{fill:#485068;}.cls-2{fill:#47ef92;}.cls-3{fill:#ff67a0;}.cls-4{opacity:0.3;}.cls-5{fill:#0b126d;}.cls-6{opacity:0.6;}.cls-7{fill:#fff;}.cls-8{fill:#fdc7a3;}.cls-9{fill:#ad5833;}.cls-10{fill:#cfcfe5;}.cls-11{opacity:0.7;}.cls-12{fill:#fa6469;}</style></defs><path class="cls-1" d="M3250,1851.78c0,2.84,0,5.68-.05,8.53q-.4,62.45-6.85,123.32c-65.85,627.35-596.48,1116.3-1241.29,1116.3-689.35,0-1248.2-558.81-1248.2-1248.15S1312.46,603.59,2001.81,603.59c511.06,0,950.41,307.18,1143.45,746.95a1233,1233,0,0,1,46.48,123.32A1246.5,1246.5,0,0,1,3250,1851.78" transform="translate(-614.31 -603.59)"/><path class="cls-2" d="M3015.3,1269.73H1336.49a12.5,12.5,0,0,1,0-25H3015.3a12.5,12.5,0,0,1,0,25Z" transform="translate(-614.31 -603.59)"/><path class="cls-2" d="M1199.26,1269.73H984.7a12.5,12.5,0,0,1,0-25h214.56a12.5,12.5,0,0,1,0,25Z" transform="translate(-614.31 -603.59)"/><path class="cls-2" d="M3015.3,1415.77H2908.36a12.5,12.5,0,0,1,0-25H3015.3a12.5,12.5,0,0,1,0,25Z" transform="translate(-614.31 -603.59)"/><path class="cls-2" d="M2787.18,1415.77H1207a12.5,12.5,0,0,1,0-25h1580.2a12.5,12.5,0,0,1,0,25Z" transform="translate(-614.31 -603.59)"/><path class="cls-2" d="M1065.59,1415.77H984.7a12.5,12.5,0,0,1,0-25h80.89a12.5,12.5,0,0,1,0,25Z" transform="translate(-614.31 -603.59)"/><path class="cls-2" d="M3015.3,1561.81H2863.81a12.5,12.5,0,0,1,0-25H3015.3a12.5,12.5,0,0,1,0,25Z" transform="translate(-614.31 -603.59)"/><path class="cls-2" d="M2755.69,1561.81H984.7a12.5,12.5,0,0,1,0-25h1771a12.5,12.5,0,0,1,0,25Z" transform="translate(-614.31 -603.59)"/><path class="cls-2" d="M3015.3,1707.85H1198.66a12.5,12.5,0,0,1,0-25H3015.3a12.5,12.5,0,0,1,0,25Z" transform="translate(-614.31 -603.59)"/><path class="cls-2" d="M1095.89,1707.85H984.7a12.5,12.5,0,0,1,0-25h111.19a12.5,12.5,0,0,1,0,25Z" transform="translate(-614.31 -603.59)"/><path class="cls-2" d="M3015.29,1853.89H2859.36a12.5,12.5,0,0,1,0-25h155.93a12.5,12.5,0,0,1,0,25Z" transform="translate(-614.31 -603.59)"/><path class="cls-2" d="M2770.24,1853.89H984.7a12.5,12.5,0,0,1,0-25H2770.24a12.5,12.5,0,0,1,0,25Z" transform="translate(-614.31 -603.59)"/><path class="cls-2" d="M3015.3,1999.93H1175.2a12.5,12.5,0,0,1,0-25H3015.3a12.5,12.5,0,0,1,0,25Z" transform="translate(-614.31 -603.59)"/><path class="cls-2" d="M1066.48,1999.93H984.7a12.5,12.5,0,0,1,0-25h81.78a12.5,12.5,0,0,1,0,25Z" transform="translate(-614.31 -603.59)"/><path class="cls-2" d="M3015.3,2146h-44.56a12.5,12.5,0,0,1,0-25h44.56a12.5,12.5,0,0,1,0,25Z" transform="translate(-614.31 -603.59)"/><path class="cls-2" d="M2896.49,2146H1210a12.5,12.5,0,0,1,0-25H2896.49a12.5,12.5,0,0,1,0,25Z" transform="translate(-614.31 -603.59)"/><path class="cls-2" d="M1137.48,2146H984.7a12.5,12.5,0,0,1,0-25h152.78a12.5,12.5,0,0,1,0,25Z" transform="translate(-614.31 -603.59)"/><path class="cls-2" d="M3015.29,2292H1210a12.5,12.5,0,1,1,0-25H3015.29a12.5,12.5,0,0,1,0,25Z" transform="translate(-614.31 -603.59)"/><path class="cls-2" d="M1076.28,2292H984.7a12.5,12.5,0,1,1,0-25h91.58a12.5,12.5,0,0,1,0,25Z" transform="translate(-614.31 -603.59)"/><path class="cls-2" d="M3015.3,2438.05H2868a12.5,12.5,0,0,1,0-25H3015.3a12.5,12.5,0,0,1,0,25Z" transform="translate(-614.31 -603.59)"/><path class="cls-2" d="M2784.8,2438.05H984.7a12.5,12.5,0,1,1,0-25H2784.8a12.5,12.5,0,0,1,0,25Z" transform="translate(-614.31 -603.59)"/><path class="cls-3" d="M2589.05,3435a399.22,399.22,0,0,1-50.3,3.05H1461.25A399.22,399.22,0,0,1,1411,3435c-103.45-13.4-174-112.7-153.85-215.1,66.2-337.25,236.75-546.75,298.75-613.8,14.45-15.6,23-23.5,23-23.5h842.3s8.55,7.9,23,23.5c62,67,232.55,276.55,298.75,613.8,20.1,102.4-50.4,201.7-153.85,215.1" transform="translate(-614.31 -603.59)"/><g class="cls-4"><path class="cls-5" d="M2444.15,2606.05c-26.7,37.5-136.55,159.2-444.15,170.5-307.6-11.3-417.45-133-444.15-170.5,14.45-15.6,23-23.5,23-23.5h842.3s8.55,7.9,23,23.5" transform="translate(-614.31 -603.59)"/></g><g class="cls-4"><path class="cls-5" d="M2682.23,3196.53s-22.48-170.19-104.46-324.35v270.93s33.37-.93,104.46,53.42" transform="translate(-614.31 -603.59)"/></g><g class="cls-4"><path class="cls-5" d="M2742.9,3219.85c-6.75-34.4-14.64-67.4-23.33-99.12,2.91,12.87,5.73,25.86,8.33,39.12,20.1,102.4-50.4,201.7-153.85,215.1a399.22,399.22,0,0,1-50.3,3.05H1446.25A399.22,399.22,0,0,1,1396,3375c-65.1-8.43-117.13-50.9-141.77-106.74,6.14,83.49,69.8,155.48,156.77,166.74a399.22,399.22,0,0,0,50.3,3.05h1077.5a399.22,399.22,0,0,0,50.3-3.05c103.45-13.4,173.95-112.7,153.85-215.1" transform="translate(-614.31 -603.59)"/></g><g class="cls-6"><path class="cls-7" d="M1292.11,3224.87c81.57-415.71,321.75-637.3,321.75-637.3h812.45c-3.34-3.3-5.17-5-5.17-5H1578.86s-240.18,221.59-321.75,637.3c-20.09,102.37,50.38,201.68,153.84,215.07,5.51.71,11.26,1.26,17.12,1.73-93.54-21.83-154.87-115.44-136-211.8" transform="translate(-614.31 -603.59)"/></g><path class="cls-5" d="M1315.54,3194.89c4.48-7.67,10.18-13.68,16.39-19.39s13-10.55,19.83-15.46c14.15-8.77,29.09-16.59,44.68-22.17l11.71-4.28c3.94-1.25,7.91-2.34,11.87-3.51,8-2.24,15.93-4.59,24-6.06s16.12-3.45,24.21-4.88l24.36-3.43c8.14-1.29,16.29-1.73,24.43-2.39s16.31-1.36,24.46-1.79l24.45-.37c8.14,0,16.32-.54,24.42,0,16.22.81,32.5,1.15,48.65,2.59s32.24,3.4,48.3,5.37a14.21,14.21,0,0,1-2.35,28.31l-.67,0q-23.73-1.11-47.34-2.78c-7.87-.7-15.76-.46-23.63-.86l-23.6-.81c-15.73-.3-31.4.07-47.11.06l-23.44,1.14c-7.81.4-15.66.58-23.38,1.59a504.11,504.11,0,0,0-91.65,15.71c-3.71,1-7.53,1.82-11.21,2.94l-11,3.6c-7.5,2.08-14.44,5.2-21.74,7.86-7,3.06-14.1,6.21-20.9,9.87a49.42,49.42,0,0,0-5,2.85l-5,2.95c-3.11,2.15-6.55,4.32-9.27,6.65l-.26.23a2.78,2.78,0,0,1-4.2-3.51" transform="translate(-614.31 -603.59)"/><path class="cls-5" d="M2680,3198.17c-2.73-2.33-6.16-4.5-9.27-6.65l-5-2.95a48.52,48.52,0,0,0-5-2.85c-6.79-3.67-13.86-6.82-20.89-9.87-7.3-2.66-14.25-5.78-21.74-7.86l-10.95-3.6c-3.69-1.12-7.52-1.9-11.22-2.95a505.1,505.1,0,0,0-91.65-15.7c-7.72-1-15.58-1.19-23.38-1.59l-23.45-1.14c-15.7,0-31.38-.36-47.1-.06l-23.61.81c-7.86.39-15.75.15-23.62.86q-23.62,1.71-47.34,2.78l-.62,0a14.21,14.21,0,0,1-2.41-28.3c16.07-2,32.17-3.79,48.3-5.37s32.44-1.78,48.66-2.59c8.1-.56,16.28,0,24.42,0l24.44.37c8.16.43,16.32,1.2,24.47,1.79s16.29,1.1,24.42,2.39l24.37,3.43c8.09,1.43,16.14,3.27,24.2,4.88s16.05,3.82,24,6.06c3.95,1.17,7.93,2.26,11.87,3.51l11.71,4.27c15.59,5.59,30.52,13.41,44.67,22.18,6.85,4.91,13.72,9.63,19.84,15.46s11.91,11.72,16.39,19.39a2.78,2.78,0,0,1-4.2,3.51Z" transform="translate(-614.31 -603.59)"/><path class="cls-5" d="M2538.77,3452.24H1461.24a408.56,408.56,0,0,1-52.12-3.2c-53.6-6.94-100.65-35.1-132.48-79.3a197.13,197.13,0,0,1-33.48-152.61c81.52-415.46,323.63-642.76,326.06-645a14.24,14.24,0,0,1,9.64-3.77h420.36q.39,0,.78,0c.25,0,.51,0,.77,0h420.37a14.22,14.22,0,0,1,9.64,3.77c2.43,2.25,244.54,229.55,326.06,645a197.13,197.13,0,0,1-33.48,152.61c-31.83,44.2-78.88,72.36-132.48,79.3A408.74,408.74,0,0,1,2538.77,3452.24Zm-954.16-855.45c-31.13,30.82-239.57,248.77-313.55,625.82a168.6,168.6,0,0,0,28.65,130.51c27.19,37.75,67.34,61.8,113.06,67.71a378.93,378.93,0,0,0,48.47,3H2538.77a379.11,379.11,0,0,0,48.46-3c45.72-5.91,85.88-30,113.06-67.71a168.6,168.6,0,0,0,28.65-130.51c-74.09-377.58-282.42-595.07-313.55-625.82H2000.77l-.77,0-.78,0Z" transform="translate(-614.31 -603.59)"/><path class="cls-5" d="M1618.58,2495s-11.53-50.46-11.53-102.61c0,0,70.49,56.75,189.77,49.05,0,0-247.51-51.91-301.63-353.18,0,0-13.25,255,123.39,406.74" transform="translate(-614.31 -603.59)"/><path class="cls-5" d="M2381.42,2495S2393,2444.5,2393,2392.35c0,0-70.48,56.75-189.77,49.05,0,0,247.51-51.91,301.63-353.18,0,0,13.26,255-123.39,406.74" transform="translate(-614.31 -603.59)"/><path class="cls-3" d="M2421.15,2582.55S2339.85,2739.4,2000,2751.9c-339.85-12.5-421.15-169.35-421.15-169.35,0-103.35,90.3-128.3,90.3-128.3a143.19,143.19,0,0,1,5.8-42c20-65.25,84.35-72.05,84.35-72.05h481.4s49.4,5.2,75.05,50.3a108.27,108.27,0,0,1,9.3,21.75,143.19,143.19,0,0,1,5.8,42s90.3,24.95,90.3,128.3" transform="translate(-614.31 -603.59)"/><g class="cls-4"><path class="cls-5" d="M2330.85,2454.25a143.19,143.19,0,0,0-5.8-42,110.35,110.35,0,0,0-5.56-14.42c-1.19-2.54-2.42-5-3.74-7.33h0c-25.68-45.09-75-50.3-75-50.3H1759.3s-64.4,6.8-84.35,72.05c94.9,62.4,220,94.7,325,94.7,79.76,0,171.09-18.7,252-55,30.91-13.88,64.8,13.53,56.43,46.36-.39,1.52-.68,2.32-.68,2.32s32.1-2.7,17.3,82S2000,2751.9,2000,2751.9c339.85-12.5,421.15-169.35,421.15-169.35,0-103.35-90.3-128.3-90.3-128.3" transform="translate(-614.31 -603.59)"/></g><g class="cls-4"><path class="cls-5" d="M1796.82,2601.58s-116.4-25.87-152-136.5l24.37-10.82s12.36,69.21,127.66,147.32" transform="translate(-614.31 -603.59)"/></g><g class="cls-6"><path class="cls-7" d="M1598.85,2597.55c0-103.35,90.3-128.3,90.3-128.3a143.19,143.19,0,0,1,5.8-42c20-65.25,84.35-72.05,84.35-72.05h481.4s18.11,1.92,38.1,13.44c-25.91-25-58.1-28.44-58.1-28.44H1759.3s-64.4,6.8-84.35,72.05a143.19,143.19,0,0,0-5.8,42s-90.3,24.95-90.3,128.3c0,0,18.15,35,73.07,73.21-39.43-31.91-53.07-58.21-53.07-58.21" transform="translate(-614.31 -603.59)"/></g><path class="cls-5" d="M2343,2457.37c-.91,2.79-1.67,4.69-2.58,6.87s-1.8,4.16-2.73,6.19c-1.88,4.07-3.89,8-6,11.84s-4.3,7.64-6.68,11.29-4.7,7.32-7.21,10.85a298.62,298.62,0,0,1-33.31,39.28c-6.31,5.76-12.31,11.79-19,17-3.3,2.68-6.48,5.48-9.86,8l-10.23,7.5-5.12,3.72-5.32,3.42-10.61,6.82c-7.19,4.35-14.61,8.29-21.87,12.43a1.23,1.23,0,0,1-1.33-2.06l.07,0c6.73-4.92,13.57-9.61,20.14-14.66l9.62-7.84,4.79-3.92,4.57-4.18,9.08-8.36c3-2.83,5.75-5.89,8.62-8.81,5.85-5.74,10.93-12.19,16.3-18.31a282.12,282.12,0,0,0,27-40.27c1.95-3.51,3.82-7,5.48-10.67s3.34-7.22,4.86-10.87,2.9-7.33,4.12-11c.6-1.84,1.24-3.67,1.71-5.48s1-3.8,1.27-5a12.53,12.53,0,0,1,24.62,4.64,11.53,11.53,0,0,1-.36,1.46Z" transform="translate(-614.31 -603.59)"/><path class="cls-5" d="M1681.26,2451.14c.23,1.22.76,3.28,1.27,5s1.12,3.64,1.72,5.48c1.22,3.67,2.6,7.36,4.11,11s3.08,7.3,4.87,10.87,3.53,7.16,5.47,10.67a282.18,282.18,0,0,0,27,40.27c5.36,6.12,10.45,12.57,16.3,18.31,2.87,2.92,5.63,6,8.61,8.81l9.09,8.36,4.56,4.18,4.8,3.92,9.62,7.84c6.56,5.05,13.41,9.75,20.14,14.66l.07,0a1.23,1.23,0,0,1-1.33,2.06c-7.26-4.14-14.68-8.08-21.87-12.43l-10.62-6.82-5.32-3.42-5.11-3.72-10.24-7.5c-3.38-2.54-6.55-5.34-9.85-8-6.69-5.25-12.69-11.28-19-17a298.55,298.55,0,0,1-33.3-39.28c-2.51-3.53-5-7.12-7.22-10.85s-4.53-7.46-6.67-11.29-4.14-7.77-6-11.84c-.94-2-1.89-4-2.74-6.19s-1.67-4.08-2.57-6.87l0-.06a12.52,12.52,0,1,1,23.84-7.69,12.12,12.12,0,0,1,.39,1.52" transform="translate(-614.31 -603.59)"/><path class="cls-5" d="M2000,2764.38h-.46c-343.19-12.6-428.32-169.37-431.78-176a12.52,12.52,0,0,1-1.4-5.75c0-91.39,66-127,90.51-137.12,5-106.3,100.11-117.59,101.1-117.69a11.38,11.38,0,0,1,1.31-.07h481.44a11.5,11.5,0,0,1,1.31.07c1,.1,96.12,11.39,101.11,117.69,24.46,10.08,90.5,45.73,90.5,137.12a12.52,12.52,0,0,1-1.4,5.75c-3.46,6.67-88.59,163.44-431.78,176Zm-408.61-185.15c12.18,19.36,104.9,148.86,408.61,160.14,305.06-11.33,396.54-140.61,408.6-160.1-1.83-89.46-77.85-112-81.13-113a12.57,12.57,0,0,1-9.13-12c0-89.08-70.6-100.57-78.35-101.56H1760c-7.55,1-78.38,13-78.38,101.56a12.5,12.5,0,0,1-9.17,12C1669.25,2467.23,1593.25,2489.79,1591.39,2579.23Zm752-125h0Z" transform="translate(-614.31 -603.59)"/><path class="cls-8" d="M2000,2751.9c-141.15-115-137-202.3-137-202.3a480.84,480.84,0,0,0,27.5-67.2,3.67,3.67,0,0,0,.1-.4,6,6,0,0,0,.4-1.25c1.55-4.6,2.9-9.05,4.15-13.4a4.17,4.17,0,0,1,.2-.75c11.85-40.45,15-69.35,15-69.35h179.3s8.3,74.85,47.4,152.35c0,0,4.1,87.35-137.05,202.3" transform="translate(-614.31 -603.59)"/><g class="cls-4"><path class="cls-5" d="M2000,2751.9c-141.15-115-137-202.3-137-202.3,51.25,137,136.3,144.65,136.3,144.65,91.25-51.1,66.15-182.95,66.15-182.95-109.6,4.9-175-28.9-175-28.9a3.67,3.67,0,0,0,.1-.4,6,6,0,0,0,.4-1.25c.65-2.3,2-7,4.15-13.4a4.17,4.17,0,0,1,.2-.75,663.35,663.35,0,0,1,26.45-69.35h167.9s8.3,74.85,47.4,152.35c0,0,4.1,87.35-137.05,202.3" transform="translate(-614.31 -603.59)"/></g><path class="cls-5" d="M2000,2764.38a12.48,12.48,0,0,1-7.89-2.81C1847.74,2644,1850.3,2552.84,1850.48,2549a12.67,12.67,0,0,1,1.33-5c37.51-74.44,46-147.41,46.12-148.14a12.5,12.5,0,0,1,12.42-11.11h179.3a12.51,12.51,0,0,1,12.43,11.11c.08.73,8.6,73.7,46.11,148.14a12.5,12.5,0,0,1,1.33,5c.18,3.83,2.74,95-141.62,212.55A12.51,12.51,0,0,1,2000,2764.38Zm-124.47-212c.86,13.59,10.82,87.75,124.47,183.23,113.47-95.33,123.58-169.41,124.46-183.24-30.13-60.87-41.84-119-45.66-142.69H1921.2C1917.38,2433.46,1905.67,2491.56,1875.53,2552.43Z" transform="translate(-614.31 -603.59)"/><path class="cls-8" d="M2507.1,2077.85c-7.95,37.2-19.55,80.65-36.4,122.8-14.15,35.45-31.9,69.9-54.2,98.85C2326.8,2415.9,2144.4,2477,2000,2477s-326.8-61-416.5-177.45c-22.3-28.95-40-63.4-54.2-98.85-16.85-42.15-28.45-85.6-36.4-122.8-22.15-104.2-13.05-213,30-310.45,57.3-129.65,186.4-271.05,477.1-271.05s419.8,141.4,477.1,271.05c43.05,97.4,52.15,206.25,30,310.45" transform="translate(-614.31 -603.59)"/><g class="cls-4"><path class="cls-5" d="M2507.1,2032.85c-7.95,37.2-19.55,80.65-36.4,122.8-14.15,35.45-31.9,69.9-54.2,98.85C2326.8,2370.9,2144.4,2432,2000,2432s-326.8-61-416.5-177.45c-22.3-28.95-40-63.4-54.2-98.85-16.85-42.15-28.45-85.6-36.4-122.8a532.14,532.14,0,0,1-11.09-87.83,527.21,527.21,0,0,0,11.09,132.83c7.95,37.2,19.55,80.65,36.4,122.8,14.15,35.45,31.9,69.9,54.2,98.85C1673.2,2415.9,1855.6,2477,2000,2477s326.8-61,416.5-177.45c22.3-28.95,40.05-63.4,54.2-98.85,16.85-42.15,28.45-85.6,36.4-122.8A527.67,527.67,0,0,0,2518.18,1945a532.12,532.12,0,0,1-11.08,87.83" transform="translate(-614.31 -603.59)"/></g><path class="cls-5" d="M1853.31,2100.22c0,46.87-31,84.87-69.31,84.87s-69.32-38-69.32-84.87,31-84.87,69.32-84.87,69.31,38,69.31,84.87" transform="translate(-614.31 -603.59)"/><path class="cls-5" d="M1756.85,2046.49a19,19,0,0,1-1.83-.58l-1.35-.53c-.86-.36-1.65-.74-2.4-1.14-1.57-.77-3-1.64-4.37-2.51a53.27,53.27,0,0,1-7.47-6.11,57.19,57.19,0,0,1-10.73-14.89,62.62,62.62,0,0,1-5-16.51c-.48-2.75-.5-5.55-.73-8.24.07-2.74.18-5.43.41-8.08a1.62,1.62,0,0,1,3-.63l.06.11a112.37,112.37,0,0,0,7.56,12.91,57.62,57.62,0,0,0,9,10.29,43.49,43.49,0,0,0,10.23,6.85,31.66,31.66,0,0,0,5.27,2.08,24.48,24.48,0,0,0,2.5.66,8.34,8.34,0,0,0,1.14.2,2.41,2.41,0,0,0,.46.06c.09,0,.36,0,0-.08a13.38,13.38,0,0,1-5.76,26.14" transform="translate(-614.31 -603.59)"/><path class="cls-5" d="M1749.58,2074.79a16,16,0,0,1-1.87.41l-1.43.22c-.93.12-1.8.18-2.66.21a49.69,49.69,0,0,1-5,0,53.85,53.85,0,0,1-9.53-1.55,57.44,57.44,0,0,1-16.74-7.53,62.6,62.6,0,0,1-12.6-11.79c-1.79-2.14-3.21-4.55-4.75-6.76-1.31-2.42-2.56-4.8-3.68-7.22a1.62,1.62,0,0,1,2.31-2.06l.1.07a112.88,112.88,0,0,0,13,7.4,57.89,57.89,0,0,0,12.93,4.42,43.25,43.25,0,0,0,12.29.81,31.23,31.23,0,0,0,5.59-.84,23.44,23.44,0,0,0,2.51-.67,9,9,0,0,0,1.09-.4,2.18,2.18,0,0,0,.42-.18c.08-.05.33-.14,0-.06a13.38,13.38,0,1,1,8.08,25.51" transform="translate(-614.31 -603.59)"/><path class="cls-7" d="M1823.27,2120.6c0,17.88-11.84,32.38-26.45,32.38s-26.45-14.5-26.45-32.38,11.85-32.38,26.45-32.38,26.45,14.5,26.45,32.38" transform="translate(-614.31 -603.59)"/><path class="cls-5" d="M2146.69,2100.22c0,46.87,31,84.87,69.31,84.87s69.32-38,69.32-84.87-31-84.87-69.32-84.87-69.31,38-69.31,84.87" transform="translate(-614.31 -603.59)"/><path class="cls-5" d="M2237.4,2020.36c-.36.11-.1.07,0,.08a2.58,2.58,0,0,0,.46-.07,9.19,9.19,0,0,0,1.13-.19,24.1,24.1,0,0,0,2.51-.67,31.27,31.27,0,0,0,5.27-2.07,43.85,43.85,0,0,0,10.24-6.85,58.09,58.09,0,0,0,9-10.3,112.94,112.94,0,0,0,7.55-12.91l.05-.09a1.63,1.63,0,0,1,2.19-.68,1.66,1.66,0,0,1,.86,1.29c.23,2.65.34,5.34.42,8.09-.23,2.68-.26,5.48-.74,8.23a62.59,62.59,0,0,1-5,16.51,57.65,57.65,0,0,1-10.73,14.89,53.36,53.36,0,0,1-7.48,6.11c-1.41.87-2.8,1.74-4.36,2.51-.76.4-1.55.79-2.41,1.15l-1.34.52a18.75,18.75,0,0,1-1.84.59,13.38,13.38,0,0,1-5.75-26.14" transform="translate(-614.31 -603.59)"/><path class="cls-5" d="M2258.5,2049.28c-.37-.09-.11,0,0,.06a4.35,4.35,0,0,0,.43.18,8.83,8.83,0,0,0,1.08.4,23.44,23.44,0,0,0,2.51.67,31.09,31.09,0,0,0,5.59.84,44,44,0,0,0,12.29-.81,57.89,57.89,0,0,0,12.93-4.42,112.16,112.16,0,0,0,13-7.41l.09,0a1.61,1.61,0,0,1,2.23.51,1.65,1.65,0,0,1,.1,1.54c-1.13,2.41-2.38,4.8-3.69,7.21-1.54,2.21-3,4.63-4.75,6.77a62.27,62.27,0,0,1-12.6,11.78,57.22,57.22,0,0,1-16.74,7.54,52.83,52.83,0,0,1-9.52,1.54,47.07,47.07,0,0,1-5,0c-.86,0-1.73-.09-2.66-.21l-1.42-.22a15.64,15.64,0,0,1-1.88-.41,13.38,13.38,0,1,1,8.08-25.51" transform="translate(-614.31 -603.59)"/><path class="cls-7" d="M2176.73,2120.6c0,17.88,11.84,32.38,26.45,32.38s26.44-14.5,26.44-32.38-11.84-32.38-26.44-32.38-26.45,14.5-26.45,32.38" transform="translate(-614.31 -603.59)"/><path class="cls-5" d="M2077.63,2261.24c2.44,18.82-7.22,38.49-23.35,50.57C2038,2323.62,2018.16,2328,2000,2328c-18.16.22-38.09-3.85-54.67-15.55a62.41,62.41,0,0,1-19.19-22.79c-4.19-9-6.34-18.28-5.23-28.3a5.09,5.09,0,0,1,9.68-1.56l.44,1a87.73,87.73,0,0,0,5.11,9.76,55.53,55.53,0,0,0,6.58,8.5,56.51,56.51,0,0,0,16.09,12c12.07,5.66,26.14,8,41.19,8,15,.21,29.2-1.85,41.58-7.41a56.78,56.78,0,0,0,16.62-12c5-5.05,9.15-11.81,12.23-18.76l.26-.59a3.64,3.64,0,0,1,6.94,1" transform="translate(-614.31 -603.59)"/><path class="cls-5" d="M2472.07,2013.81a10.2,10.2,0,0,0-5.54-8.13c-19.25-9.91-39.46-16.64-58.26-21.23a237,237,0,0,1-35.16-11.94c-127.83-53.33-224.28-13.2-270.69,15.72a28.43,28.43,0,0,1-27,1.48C2021.67,1964.19,1963,1975,1930,1985a28.49,28.49,0,0,1-23.88-3.36c-41.36-27.35-140.28-74.93-272.53-20.6-16.25,6.67-32.71,13-49.67,17.82a258.7,258.7,0,0,0-51.24,20.42,10.18,10.18,0,0,0-5.38,8.23l-2.23,32.86a10.19,10.19,0,0,0,7.38,10.32c8.52,2.64,23.27,8.79,41.27,22.79,1,30.34,8.18,64.44,29,94.09,28,39.92,74.66,63.48,138.68,70q6.24.63,12.31,1c55.07,3.3,97.19-12.14,130-41,55.46-48.73,56.95-128.13,50.95-167.61,23.7-8.45,83.84-24.86,131.09,5.22-2.22,35-1.54,122.78,53.82,174.89,31.82,30,75.78,42.95,130.77,38.69,4-.31,8.14-.72,12.29-1.21,63.87-7.67,110.06-32,137.28-72.44,20.21-30,26.67-64.22,27.12-94.58,17.72-14.31,32.34-20.71,40.81-23.5a10.16,10.16,0,0,0,7.18-10.45Zm-613.79,161c-25.59,24.95-63.63,35-113.12,30-53.13-5.44-91.21-24.07-113.18-55.4-30.89-44-24.22-103.12-18.27-132.11a24.9,24.9,0,0,1,13.82-17.1c134.83-65.51,230.45-12.42,263,11.14a20.5,20.5,0,0,1,8.61,15.17c2.27,31.56,2.41,106.17-40.84,148.34m511.9-17.3c-21.36,31.7-59.06,51-112.07,57.36-49.39,5.93-87.62-3.5-113.69-28-44.08-41.41-45.41-116-43.76-147.61A20.44,20.44,0,0,1,2109,2024c32.06-24.12,126.61-78.86,262.72-15.7a24.94,24.94,0,0,1,14.15,16.86c6.52,28.88,14.35,87.85-15.66,132.4" transform="translate(-614.31 -603.59)"/><g class="cls-4"><path class="cls-5" d="M2507.1,2077.85c-7.95,37.2-19.55,80.65-36.4,122.8,18.1-147.15-.85-274.85-.85-274.85-61.45,34.6-120.55,6.3-120.55,6.3-28,35.8-57.45,19-57.45,19-157,33.4-231.9-5.45-231.9-5.45-107.45,45.15-165.2-9.85-165.2-9.85-78.5,46-139-19.9-139-19.9-63.15-110.1-82.4-180.8-82.4-180.8-84.25,84.25-143.2,190.75-143.2,190.75s-19,127.7-.85,274.85c-16.85-42.15-28.45-85.6-36.4-122.8-22.15-104.2-13.05-213,30-310.45,57.3-129.65,186.4-271.05,477.1-271.05s419.8,141.4,477.1,271.05c43.05,97.4,52.15,206.25,30,310.45" transform="translate(-614.31 -603.59)"/></g><path class="cls-5" d="M2000,2489.44c-137.71,0-329.88-57.05-426.38-182.31-51-66.2-78.7-159.82-92.93-226.7-23.35-109.74-12.72-219.73,30.77-318.09,56.14-127,186.48-278.51,488.54-278.51s432.4,151.46,488.55,278.51c43.47,98.35,54.11,208.34,30.76,318.09-14.23,66.86-41.9,160.48-92.93,226.71C2329.88,2432.39,2137.72,2489.44,2000,2489.44Zm0-980.61c-288.6,0-412.53,143.36-465.68,263.62-41.34,93.52-51.43,198.21-29.18,302.77,13.7,64.35,40.13,154.17,88.28,216.65,91.35,118.57,274.79,172.57,406.58,172.57s315.24-54,406.58-172.56c48.16-62.52,74.59-152.32,88.28-216.66,22.25-104.56,12.16-209.26-29.18-302.77C2412.53,1652.19,2288.6,1508.83,2000,1508.83Z" transform="translate(-614.31 -603.59)"/><path class="cls-9" d="M2632.7,2492.85l-15.25-94.15C2514.4,2578.05,2317.3,2559,2317.3,2559c249.9-194.6,179.3-669.6,179.3-669.6-64.95,36.55-127.4,6.65-127.4,6.65-29.55,37.85-60.7,20-60.7,20-166,35.3-245.15-5.75-245.15-5.75-113.55,47.7-174.6-10.45-174.6-10.45-83,48.65-146.9-21-146.9-21-66.75-116.4-87.1-191.1-87.1-191.1-89,89-151.35,201.6-151.35,201.6s-70.6,475,179.3,669.6c0,0-197.1,19.1-300.15-160.25l-15.25,94.15s-112.6-138.55-128.85-404.65c-6-97.15,1-211.3,30.9-341.95,112-488.4,375.1-658.8,730.65-658.8,269.8,0,486.34,98.1,624.05,358.8,43.8,82.9,79.6,182.2,106.6,300,111.9,488.4-98,746.6-98,746.6" transform="translate(-614.31 -603.59)"/><g class="cls-4"><path class="cls-5" d="M2632.7,2492.85l-15.25-94.15C2514.4,2578.05,2317.3,2559,2317.3,2559c249.9-194.6,179.3-669.6,179.3-669.6-64.95,36.55-127.4,6.65-127.4,6.65-29.55,37.85-60.7,20-60.7,20-166,35.3-245.15-5.75-245.15-5.75-113.55,47.7-174.6-10.45-174.6-10.45-83,48.65-146.9-21-146.9-21-66.75-116.4-87.1-191.1-87.1-191.1-89,89-151.35,201.6-151.35,201.6s-70.6,475,179.3,669.6c0,0-197.1,19.1-300.15-160.25l-15.25,94.15s-112.6-138.55-128.85-404.65c0,0,8.85,139.85,122.9,231.6,0,0-26-99-8.24-176.55,0,0,39.69,145.8,128.09,234.25-1.7-7.3-101-436.45,68-700.9,0,0,17.2,21.4,60-8.9,0,0-38.2-216.5,80.25-345,0,0-124.8,195.32,35.5,525.68,0,0,138.06,61.94,155.15-2.43,0,0,79.65,46.9,138.45,11.85,0,0-24.35-80.75,0-158,0,0,34.4,256.65,276.8,179.4,0,0,34.3,7.15,23.15-29,0,0-22.7-91-7.11-150.65,0,0,51.66,201.4,172.86,160.4s19.75-403.2-77.35-483.7c3.55,1.6,117.35,55.75,166.45,432.9,0,0,48.15,82-28.5,110.5,0,0,13.25,229.3-26.05,399.2,0,0,48.65-29.5,105.65-173.75,0,0,14.8,64.86,10.75,146.45,3.55-6.3,177.15-316.75-10.9-844.75a2.09,2.09,0,0,0-.2-.5c43.8,82.9,79.6,182.2,106.6,300,111.9,488.4-98,746.6-98,746.6" transform="translate(-614.31 -603.59)"/></g><g class="cls-6"><path class="cls-7" d="M2000,1087.45c-355.55,0-618.7,170.4-730.65,658.8-29.95,130.65-36.85,244.8-30.9,341.95,12,197.19,77,324.26,109.79,376.88-34.18-64.91-79.89-179.64-89.79-341.88-6-97.15,1-211.3,30.9-341.95,51.93-226.56,136.42-384.66,247.56-489.09,14.56,5.75,41.85-.87,68.18-17.84,32.22-20.76,50.9-49.19,42.36-64.08,107.56-61.49,232.93-87.79,372.55-87.79,254.34,0,461.33,87.25,599.57,315.64-137.89-254.51-352.64-350.64-619.57-350.64" transform="translate(-614.31 -603.59)"/></g><g class="cls-6"><path class="cls-7" d="M1689.4,1322.7s-110.84,320.07,125.9,590.37c0,0-36.57,2.08-75.91-33.12,0,0-194.9-288-50-557.25" transform="translate(-614.31 -603.59)"/></g><path class="cls-5" d="M2496.88,1876.84c-.2,0,.69,0,1.15-.09l1.86-.19c1.27-.15,2.62-.37,4-.62,2.7-.47,5.48-1.14,8.26-1.87a175,175,0,0,0,16.7-5.49c5.56-2.08,11-4.54,16.5-7.08l4.08-2,2-1,1.44-.8a30.46,30.46,0,0,0,5.21-3.89A27.66,27.66,0,0,0,2565,1843a28.35,28.35,0,0,0,1.37-6.3,29,29,0,0,0,.07-3.23c0-.45,0-1.19-.1-2l-.16-2.32c-.82-12.42-1.77-24.87-3-37.3-2.34-24.89-6.09-49.64-10.25-74.3-2.41-12.26-4.41-24.63-7.31-36.79l-4-18.31c-1.42-6.09-3-12.13-4.53-18.2-12.28-48.44-28.59-96-50.47-140.83a711.64,711.64,0,0,0-80.43-126.69.79.79,0,0,1,1.11-1.12c40.13,31.9,70.7,74.81,94.39,120.14,23.94,45.43,42.18,93.63,56.33,142.85s23.58,99.73,29.61,150.61c1.45,12.74,2.78,25.49,3.59,38.33l.17,2.4c.06.76.12,1.6.14,2.73a54.35,54.35,0,0,1-.15,6.25,53.63,53.63,0,0,1-2.58,12.22A52.67,52.67,0,0,1,2575.5,1872a55.44,55.44,0,0,1-9.92,7.49l-2.72,1.5-2.22,1.1-4.45,2.19c-6,2.82-12.05,5.55-18.34,7.93a172.54,172.54,0,0,1-19.38,6.24c-3.36.85-6.74,1.63-10.27,2.22-1.78.3-3.54.58-5.42.78l-2.87.28c-1.11.06-1.79.13-3.57.12a12.5,12.5,0,1,1,.54-25" transform="translate(-614.31 -603.59)"/><path class="cls-5" d="M1642.74,1691.24a428.9,428.9,0,0,1-10-47.31c-2.57-15.77-4.47-31.61-5.59-47.52-2.21-31.77-2.63-63.78.74-95.52,1.57-15.87,3.73-31.69,6.85-47.32a429.31,429.31,0,0,1,11.52-46.39c2.31-7.62,5.13-15.09,7.9-22.55,1.46-3.7,3.12-7.34,4.66-11s3.17-7.28,5-10.82c6.74-14.39,15.39-27.84,24.6-40.63a1.12,1.12,0,0,1,2,1.06v0c-11.64,29.19-21.87,58.2-28.92,88.14a415.33,415.33,0,0,0-8.81,45.16c-2.25,15.18-3.55,30.49-4.29,45.8a616,616,0,0,0,2.6,91.92q2.46,22.86,6.26,45.54c2.57,15,5.82,30.31,9.54,44.42l.11.43a12.5,12.5,0,0,1-24.12,6.55" transform="translate(-614.31 -603.59)"/><path class="cls-5" d="M1491,1887.83c2.44-18.48,5.72-36.34,9.44-54.3,3.55-18,8-35.71,12.5-53.42s9.81-35.23,15.24-52.67c5.68-17.38,11.91-34.57,18.89-51.46a2.23,2.23,0,0,1,4.26,1.25v0c-3.26,17.93-7,35.64-10.13,53.49-1.81,8.86-3.34,17.78-5,26.66l-4.62,26.7c-3.15,17.77-5.68,35.64-8.45,53.44-2.6,17.78-5.1,35.77-7.33,53.29l0,.2a12.49,12.49,0,1,1-24.79-3.15Z" transform="translate(-614.31 -603.59)"/><path class="cls-5" d="M2052.51,1916.58a215.91,215.91,0,0,1-9-22.48c-2.59-7.39-4.83-14.84-6.92-22.3-4.15-14.92-7.41-30-10.13-45.06s-4.65-30.26-6-45.44c-.83-7.56-1.11-15.19-1.69-22.75-.39-7.59-.57-15.18-.85-22.74a.58.58,0,0,1,.56-.61.6.6,0,0,1,.61.51c1.28,7.46,2.44,14.93,3.81,22.34,1.55,7.4,2.81,14.82,4.61,22.14,3.28,14.68,7.25,29.17,11.67,43.45s9.6,28.27,15.4,41.89c2.91,6.79,5.93,13.52,9.25,20a193.56,193.56,0,0,0,10.33,18.5l.16.24a12.54,12.54,0,1,1-21,13.73,12.36,12.36,0,0,1-.82-1.46" transform="translate(-614.31 -603.59)"/><path class="cls-5" d="M2359.87,1904.32c-1.61-2-2.43-3.38-3.5-5l-2.86-4.66c-1.77-3.09-3.49-6.19-5-9.32-3.2-6.23-6-12.55-8.59-18.88a348.58,348.58,0,0,1-12.92-38.62c-3.69-13-6.43-26.12-9-39.24-1.2-6.57-2.19-13.17-3.29-19.73l-2.59-19.79a1.49,1.49,0,0,1,1.29-1.67,1.47,1.47,0,0,1,1.62,1.08l0,0,5.25,19.1c2,6.3,3.85,12.61,5.92,18.85,4.27,12.44,8.68,24.79,14,36.71a329.9,329.9,0,0,0,17.25,34.72c3.25,5.51,6.58,10.94,10.18,16.06,1.77,2.59,3.64,5,5.51,7.48l2.85,3.45a36.45,36.45,0,0,0,2.6,2.8,12.61,12.61,0,0,1-16.28,19.26,12.76,12.76,0,0,1-1.74-1.79Z" transform="translate(-614.31 -603.59)"/><path class="cls-5" d="M1668,2571.94c-47.11,0-187.89-11.35-278.3-138.91l-10,61.8a12.5,12.5,0,0,1-22,5.89c-2.2-2.72-54.44-67.9-93.19-194.37-35.55-116-65.65-307.91-7.22-562.89,54.77-239,145.75-408.9,278.13-519.36,120.29-100.38,272.29-149.17,464.68-149.17s344.39,48.79,464.68,149.17c132.38,110.46,223.36,280.34,278.13,519.36,58.44,255,28.32,446.84-7.22,562.89-38.75,126.47-91,191.65-93.19,194.37a12.5,12.5,0,0,1-22-5.89l-10-61.8C2501,2587.3,2318,2571.61,2316.07,2571.41a12.5,12.5,0,0,1-6.47-22.31c214.85-167.28,186.07-554.8,176.72-640.84-49.49,20.72-94.71,9.28-113.46,2.66-24.35,25.65-51.19,24.15-65.92,18.22-143.43,29.68-222.93,3.47-243.84-5.21-95.51,38.11-155.6,5.33-175.62-9.13-87,44.74-154.14-26.76-154.82-27.51a11.93,11.93,0,0,1-1.63-2.23c-47.24-82.31-71.42-143.66-81.83-173.64-73,77.49-125.53,167.55-133.76,182-4.7,35.38-57.62,474.59,175,655.69a12.51,12.51,0,0,1-6.48,22.31C1683.59,2571.44,1677.83,2571.94,1668,2571.94Zm828.65-695.1A12.48,12.48,0,0,1,2509,1887.5c.18,1.2,17.72,121.92,4.14,264.86-16.59,174.61-72.52,310.07-162.41,394.43,58.34-2.92,181.7-25.15,255.89-154.3a12.5,12.5,0,0,1,23.18,4.22l10.28,63.42c18.36-29.21,48.13-83.89,72.06-162.49,34.37-112.91,63.36-299.75,6.34-548.6C2617,1306.19,2388.67,1099.93,2000,1099.93S1383,1306.19,1281.55,1749c-57,248.85-28,435.69,6.35,548.6,23.92,78.59,53.69,133.28,72,162.49l10.28-63.42a12.5,12.5,0,0,1,23.17-4.22c74.19,129.14,197.54,151.38,255.9,154.29-89.89-84.35-145.82-219.81-162.4-394.42-13.59-142.94,3.95-263.66,4.13-264.86a12.61,12.61,0,0,1,1.42-4.22c2.58-4.66,64.21-115.12,153.45-204.37a12.51,12.51,0,0,1,20.9,5.55c.2.73,20.72,74.25,85.15,186.84,7.71,7.82,61.52,58.2,130.49,17.74a12.5,12.5,0,0,1,15,1.74c2.23,2.09,57.22,51.67,161.1,8a12.5,12.5,0,0,1,10.59.42c.71.36,78.15,38.33,236.8,4.6a12.5,12.5,0,0,1,8.8,1.37c2.15,1.14,22.87,11,44.68-16.88a12.48,12.48,0,0,1,15.25-3.57c2.3,1.07,57.65,26.48,115.86-6.3A12.51,12.51,0,0,1,2496.61,1876.84Z" transform="translate(-614.31 -603.59)"/><path class="cls-10" d="M2638.17,2787.59l-84,652H1445.83l-27.54-213.81-56.46-438.17a56.67,56.67,0,0,1,56.22-63.93H2582a56.67,56.67,0,0,1,56.22,63.93" transform="translate(-614.31 -603.59)"/><g class="cls-4"><path class="cls-5" d="M2638.17,2787.59l-84,652H1445.83l-27.54-213.81c65.8,39,271,139.73,581.87,99.39,309.36-40.17,530.29-275.89,463-601.49H2582a56.67,56.67,0,0,1,56.22,63.93" transform="translate(-614.31 -603.59)"/></g><g class="cls-11"><path class="cls-7" d="M2637.1,2767.41a56.67,56.67,0,0,0-55.15-43.75H1418a56.67,56.67,0,0,0-56.21,63.93l56.46,438.17,27.54,213.82h31.32l-22.3-173.2-56.47-438.17a56.68,56.68,0,0,1,56.22-63.93h99.19c2,16.29,45.21,29.32,98.33,29.32s96.39-13,98.33-29.32h868.06a56.7,56.7,0,0,1,18.59,3.13" transform="translate(-614.31 -603.59)"/></g><path class="cls-12" d="M2164.6,3087.39a164.51,164.51,0,1,1-164.51-164.51,164.51,164.51,0,0,1,164.51,164.51" transform="translate(-614.31 -603.59)"/><path class="cls-7" d="M1960.92,3125.27h0a13.16,13.16,0,0,1-18.4,12.08l-73.37-31.8a18.9,18.9,0,0,1,0-34.68l73.37-31.8a13.16,13.16,0,0,1,18.4,12.08v.13a13.17,13.17,0,0,1-8.43,12.29L1889,3088l63.54,25a13.17,13.17,0,0,1,8.34,12.25" transform="translate(-614.31 -603.59)"/><path class="cls-7" d="M2024.71,3030.48,1996,3148.71c-1,3.9-1.79,7-2.51,9.23a11.29,11.29,0,0,1-3.28,5.28q-2.21,1.91-6.41,1.9-10.45,0-10.46-9,0-2.37,2.05-11.8L2004,3026.07q2.25-9.43,4.31-12.92t8-3.49q5.13,0,7.85,2.46a8.68,8.68,0,0,1,2.72,6.77q0,3.18-2.15,11.59" transform="translate(-614.31 -603.59)"/><path class="cls-7" d="M2131.06,3105.52l-73.62,32.05a13.06,13.06,0,0,1-18.28-12v-.18a13.05,13.05,0,0,1,8.29-12.16l63.8-25.05-63.74-24.66a13.06,13.06,0,1,1,9.89-24.17l73.6,31.75a18.74,18.74,0,0,1,.06,34.39" transform="translate(-614.31 -603.59)"/><path class="cls-5" d="M2554.17,3453.81H1445.84a14.23,14.23,0,0,1-14.11-12.4l-84-652a70.89,70.89,0,0,1,70.31-80H2582a70.89,70.89,0,0,1,70.32,80l-84,652A14.23,14.23,0,0,1,2554.17,3453.81Zm-1095.83-28.43H2541.66l82.43-639.59a42.48,42.48,0,0,0-42.12-47.9H1418a42.47,42.47,0,0,0-42.11,47.9Z" transform="translate(-614.31 -603.59)"/><path class="cls-10" d="M2534.29,3467H1465.71a38.3,38.3,0,1,1,0-76.59H2534.29a38.3,38.3,0,1,1,0,76.59" transform="translate(-614.31 -603.59)"/><g class="cls-4"><path class="cls-5" d="M2534.29,3390.42h-173c0,.57.09,1.15.09,1.74a38.29,38.29,0,0,1-38.3,38.29H1427.5a38.27,38.27,0,0,0,38.21,36.56H2534.29a38.3,38.3,0,1,0,0-76.59" transform="translate(-614.31 -603.59)"/></g><path class="cls-5" d="M2534.29,3481.23H1465.71a52.52,52.52,0,1,1,0-105H2534.29a52.52,52.52,0,1,1,0,105Zm-1068.58-76.6a24.08,24.08,0,0,0,0,48.16H2534.29a24.08,24.08,0,0,0,0-48.16Z" transform="translate(-614.31 -603.59)"/><path class="cls-5" d="M617,3463.93c57.63-9.06,115.26-9.69,172.88-9.64l172.88-.6,345.77-1.2,691.52-2.34,345.76,0,345.76.43,345.76,1,172.89.52q43.22.27,86.44,2.92c28.81,2,57.62,4.48,86.44,9.36a2.68,2.68,0,0,1,0,5.29c-28.82,4.87-57.63,7.34-86.44,9.36q-43.23,2.71-86.44,2.92l-172.89.51-345.76,1-345.76.42-345.76,0-691.52-2.33-345.77-1.21-172.88-.6c-57.62.06-115.25-.58-172.88-9.63a3.12,3.12,0,0,1,0-6.17" transform="translate(-614.31 -603.59)"/></svg>